<?xml version="1.0" encoding="utf-8"?><svg xmlns="http://www.w3.org/2000/svg"><symbol viewBox="0 0 24 24" id="cancel"><path d="M15.5355339 15.5355339L8.46446609 8.46446609M15.5355339 8.46446609L8.46446609 15.5355339"/><path d="M4.92893219,19.0710678 C1.02368927,15.1658249 1.02368927,8.83417511 4.92893219,4.92893219 C8.83417511,1.02368927 15.1658249,1.02368927 19.0710678,4.92893219 C22.9763107,8.83417511 22.9763107,15.1658249 19.0710678,19.0710678 C15.1658249,22.9763107 8.83417511,22.9763107 4.92893219,19.0710678 Z"/></symbol><symbol viewBox="0 0 24 24" id="bin"><path d="M19 6L5 6M14 5L10 5M6 10L6 20C6 20.6666667 6.33333333 21 7 21 7.66666667 21 11 21 17 21 17.6666667 21 18 20.6666667 18 20 18 19.3333333 18 16 18 10"/></symbol></svg>